# xmcd
#
# Track frame offsets: 
#        213
#        16792
#        35284
#        52605
#        66830
#        82386
#        104194
#        121494
#        151709
#        175701
#        193112
#        211490
#
# Disc length: 2963 seconds
#
# Revision: 0
# Processed by: cddbd v1.5.2PL0 Copyright (c) Steve Scherf et al.
# Submitted via: ExactAudioCopy v1.0b3
#
DISCID=9d0b910c
DTITLE=Ashley Cleveland - God Don't Never Change
DYEAR=2009
DGENRE=Gospel
TTITLE0=My God Called Me This Morning
TTITLE1=You Got To Move
TTITLE2=When This World Comes To An End
TTITLE3=Going To Heaven To Meet The King
TTITLE4=Rock in a Weary Land
TTITLE5=Samson and Delilah
TTITLE6=Denomination Blues
TTITLE7=Joy Joy
TTITLE8=God Don't Never Change
TTITLE9=I'm Going To Live The Life I Sing About In My Song
TTITLE10=Keep Your Lamp Trimmed and Burning
TTITLE11=The Last Word
EXTD=
EXTT0=
EXTT1=
EXTT2=
EXTT3=
EXTT4=
EXTT5=
EXTT6=
EXTT7=
EXTT8=
EXTT9=
EXTT10=
EXTT11=
PLAYORDER=
